<?xml version="1.0" encoding="utf-8" standalone="no"?>
<!DOCTYPE svg PUBLIC "-//W3C//DTD SVG 1.1//EN"
  "http://www.w3.org/Graphics/SVG/1.1/DTD/svg11.dtd">
<svg xmlns:xlink="http://www.w3.org/1999/xlink" width="518.4pt" height="302.4pt" viewBox="0 0 518.4 302.4" xmlns="http://www.w3.org/2000/svg" version="1.1">
 <metadata>
  <rdf:RDF xmlns:dc="http://purl.org/dc/elements/1.1/" xmlns:cc="http://creativecommons.org/ns#" xmlns:rdf="http://www.w3.org/1999/02/22-rdf-syntax-ns#">
   <cc:Work>
    <dc:type rdf:resource="http://purl.org/dc/dcmitype/StillImage"/>
    <dc:date>2026-08-23T19:15:46.609129</dc:date>
    <dc:format>image/svg+xml</dc:format>
    <dc:creator>
     <cc:Agent>
      <dc:title>Matplotlib v3.11.1, https://matplotlib.org/</dc:title>
     </cc:Agent>
    </dc:creator>
   </cc:Work>
  </rdf:RDF>
 </metadata>
 <defs>
  <style type="text/css">*{stroke-linejoin: round; stroke-linecap: butt}</style>
 </defs>
 <g id="figure_1">
  <g id="patch_1">
   <path d="M 0 302.4 
L 518.4 302.4 
L 518.4 0 
L 0 0 
z
" style="fill: #ffffff"/>
  </g>
  <g id="axes_1">
   <g id="patch_2">
    <path d="M 169 260.277656 
L 507.6 260.277656 
L 507.6 25.157422 
L 169 25.157422 
z
" style="fill: #ffffff"/>
   </g>
   <g id="patch_3">
    <path d="M 169 249.590373 
L 192.563074 249.590373 
L 192.563074 232.715715 
L 169 232.715715 
z
" clip-path="url(#p36e0de58a2)" style="fill: #1c2530"/>
   </g>
   <g id="patch_4">
    <path d="M 169 221.465943 
L 196.964443 221.465943 
L 196.964443 204.591285 
L 169 204.591285 
z
" clip-path="url(#p36e0de58a2)" style="fill: #1c2530"/>
   </g>
   <g id="patch_5">
    <path d="M 169 193.341513 
L 205.435484 193.341513 
L 205.435484 176.466855 
L 169 176.466855 
z
" clip-path="url(#p36e0de58a2)" style="fill: #1c2530"/>
   </g>
   <g id="patch_6">
    <path d="M 169 165.217083 
L 215.635412 165.217083 
L 215.635412 148.342425 
L 169 148.342425 
z
" clip-path="url(#p36e0de58a2)" style="fill: #1c2530"/>
   </g>
   <g id="patch_7">
    <path d="M 169 137.092653 
L 222.135327 137.092653 
L 222.135327 120.217995 
L 169 120.217995 
z
" clip-path="url(#p36e0de58a2)" style="fill: #1c2530"/>
   </g>
   <g id="patch_8">
    <path d="M 169 108.968223 
L 335.378522 108.968223 
L 335.378522 92.093565 
L 169 92.093565 
z
" clip-path="url(#p36e0de58a2)" style="fill: #1c2530"/>
   </g>
   <g id="patch_9">
    <path d="M 169 80.843793 
L 360.620747 80.843793 
L 360.620747 63.969135 
L 169 63.969135 
z
" clip-path="url(#p36e0de58a2)" style="fill: #1c2530"/>
   </g>
   <g id="patch_10">
    <path d="M 169 52.719363 
L 465.354484 52.719363 
L 465.354484 35.844705 
L 169 35.844705 
z
" clip-path="url(#p36e0de58a2)" style="fill: #1c2530"/>
   </g>
   <g id="matplotlib.axis_1">
    <g id="xtick_1">
     <g id="line2d_1">
      <defs>
       <path id="m4c768cb888" d="M 0 0 
L 0 3.5 
" style="stroke: #000000; stroke-width: 0.8"/>
      </defs>
      <g>
       <use xlink:href="#m4c768cb888" x="169" y="260.277656" style="stroke: #000000; stroke-width: 0.8"/>
      </g>
     </g>
     <g id="text_1">
      <!-- 0.00 -->
      <g transform="translate(157.867188 274.875313) scale(0.1 -0.1)">
       <defs>
        <path id="DejaVuSans-13" d="M 2034 4250 
Q 1547 4250 1301 3770 
Q 1056 3291 1056 2328 
Q 1056 1369 1301 889 
Q 1547 409 2034 409 
Q 2525 409 2770 889 
Q 3016 1369 3016 2328 
Q 3016 3291 2770 3770 
Q 2525 4250 2034 4250 
z
M 2034 4750 
Q 2819 4750 3233 4129 
Q 3647 3509 3647 2328 
Q 3647 1150 3233 529 
Q 2819 -91 2034 -91 
Q 1250 -91 836 529 
Q 422 1150 422 2328 
Q 422 3509 836 4129 
Q 1250 4750 2034 4750 
z
" transform="scale(0.015625)"/>
        <path id="DejaVuSans-11" d="M 684 794 
L 1344 794 
L 1344 0 
L 684 0 
L 684 794 
z
" transform="scale(0.015625)"/>
       </defs>
       <use xlink:href="#DejaVuSans-13"/>
       <use xlink:href="#DejaVuSans-11" transform="translate(63.625 0)"/>
       <use xlink:href="#DejaVuSans-13" transform="translate(95.40625 0)"/>
       <use xlink:href="#DejaVuSans-13" transform="translate(159.03125 0)"/>
      </g>
     </g>
    </g>
    <g id="xtick_2">
     <g id="line2d_2">
      <g>
       <use xlink:href="#m4c768cb888" x="229.545959" y="260.277656" style="stroke: #000000; stroke-width: 0.8"/>
      </g>
     </g>
     <g id="text_2">
      <!-- 0.01 -->
      <g transform="translate(218.413146 274.875313) scale(0.1 -0.1)">
       <defs>
        <path id="DejaVuSans-14" d="M 794 531 
L 1825 531 
L 1825 4091 
L 703 3866 
L 703 4441 
L 1819 4666 
L 2450 4666 
L 2450 531 
L 3481 531 
L 3481 0 
L 794 0 
L 794 531 
z
" transform="scale(0.015625)"/>
       </defs>
       <use xlink:href="#DejaVuSans-13"/>
       <use xlink:href="#DejaVuSans-11" transform="translate(63.625 0)"/>
       <use xlink:href="#DejaVuSans-13" transform="translate(95.40625 0)"/>
       <use xlink:href="#DejaVuSans-14" transform="translate(159.03125 0)"/>
      </g>
     </g>
    </g>
    <g id="xtick_3">
     <g id="line2d_3">
      <g>
       <use xlink:href="#m4c768cb888" x="290.091917" y="260.277656" style="stroke: #000000; stroke-width: 0.8"/>
      </g>
     </g>
     <g id="text_3">
      <!-- 0.02 -->
      <g transform="translate(278.959105 274.875313) scale(0.1 -0.1)">
       <defs>
        <path id="DejaVuSans-15" d="M 1228 531 
L 3431 531 
L 3431 0 
L 469 0 
L 469 531 
Q 828 903 1448 1529 
Q 2069 2156 2228 2338 
Q 2531 2678 2651 2914 
Q 2772 3150 2772 3378 
Q 2772 3750 2511 3984 
Q 2250 4219 1831 4219 
Q 1534 4219 1204 4116 
Q 875 4013 500 3803 
L 500 4441 
Q 881 4594 1212 4672 
Q 1544 4750 1819 4750 
Q 2544 4750 2975 4387 
Q 3406 4025 3406 3419 
Q 3406 3131 3298 2873 
Q 3191 2616 2906 2266 
Q 2828 2175 2409 1742 
Q 1991 1309 1228 531 
z
" transform="scale(0.015625)"/>
       </defs>
       <use xlink:href="#DejaVuSans-13"/>
       <use xlink:href="#DejaVuSans-11" transform="translate(63.625 0)"/>
       <use xlink:href="#DejaVuSans-13" transform="translate(95.40625 0)"/>
       <use xlink:href="#DejaVuSans-15" transform="translate(159.03125 0)"/>
      </g>
     </g>
    </g>
    <g id="xtick_4">
     <g id="line2d_4">
      <g>
       <use xlink:href="#m4c768cb888" x="350.637876" y="260.277656" style="stroke: #000000; stroke-width: 0.8"/>
      </g>
     </g>
     <g id="text_4">
      <!-- 0.03 -->
      <g transform="translate(339.505063 274.875313) scale(0.1 -0.1)">
       <defs>
        <path id="DejaVuSans-16" d="M 2597 2516 
Q 3050 2419 3304 2112 
Q 3559 1806 3559 1356 
Q 3559 666 3084 287 
Q 2609 -91 1734 -91 
Q 1441 -91 1130 -33 
Q 819 25 488 141 
L 488 750 
Q 750 597 1062 519 
Q 1375 441 1716 441 
Q 2309 441 2620 675 
Q 2931 909 2931 1356 
Q 2931 1769 2642 2001 
Q 2353 2234 1838 2234 
L 1294 2234 
L 1294 2753 
L 1863 2753 
Q 2328 2753 2575 2939 
Q 2822 3125 2822 3475 
Q 2822 3834 2567 4026 
Q 2313 4219 1838 4219 
Q 1578 4219 1281 4162 
Q 984 4106 628 3988 
L 628 4550 
Q 988 4650 1302 4700 
Q 1616 4750 1894 4750 
Q 2613 4750 3031 4423 
Q 3450 4097 3450 3541 
Q 3450 3153 3228 2886 
Q 3006 2619 2597 2516 
z
" transform="scale(0.015625)"/>
       </defs>
       <use xlink:href="#DejaVuSans-13"/>
       <use xlink:href="#DejaVuSans-11" transform="translate(63.625 0)"/>
       <use xlink:href="#DejaVuSans-13" transform="translate(95.40625 0)"/>
       <use xlink:href="#DejaVuSans-16" transform="translate(159.03125 0)"/>
      </g>
     </g>
    </g>
    <g id="xtick_5">
     <g id="line2d_5">
      <g>
       <use xlink:href="#m4c768cb888" x="411.183835" y="260.277656" style="stroke: #000000; stroke-width: 0.8"/>
      </g>
     </g>
     <g id="text_5">
      <!-- 0.04 -->
      <g transform="translate(400.051022 274.875313) scale(0.1 -0.1)">
       <defs>
        <path id="DejaVuSans-17" d="M 2419 4116 
L 825 1625 
L 2419 1625 
L 2419 4116 
z
M 2253 4666 
L 3047 4666 
L 3047 1625 
L 3713 1625 
L 3713 1100 
L 3047 1100 
L 3047 0 
L 2419 0 
L 2419 1100 
L 313 1100 
L 313 1709 
L 2253 4666 
z
" transform="scale(0.015625)"/>
       </defs>
       <use xlink:href="#DejaVuSans-13"/>
       <use xlink:href="#DejaVuSans-11" transform="translate(63.625 0)"/>
       <use xlink:href="#DejaVuSans-13" transform="translate(95.40625 0)"/>
       <use xlink:href="#DejaVuSans-17" transform="translate(159.03125 0)"/>
      </g>
     </g>
    </g>
    <g id="xtick_6">
     <g id="line2d_6">
      <g>
       <use xlink:href="#m4c768cb888" x="471.729793" y="260.277656" style="stroke: #000000; stroke-width: 0.8"/>
      </g>
     </g>
     <g id="text_6">
      <!-- 0.05 -->
      <g transform="translate(460.596981 274.875313) scale(0.1 -0.1)">
       <defs>
        <path id="DejaVuSans-18" d="M 691 4666 
L 3169 4666 
L 3169 4134 
L 1269 4134 
L 1269 2991 
Q 1406 3038 1543 3061 
Q 1681 3084 1819 3084 
Q 2600 3084 3056 2656 
Q 3513 2228 3513 1497 
Q 3513 744 3044 326 
Q 2575 -91 1722 -91 
Q 1428 -91 1123 -41 
Q 819 9 494 109 
L 494 744 
Q 775 591 1075 516 
Q 1375 441 1709 441 
Q 2250 441 2565 725 
Q 2881 1009 2881 1497 
Q 2881 1984 2565 2268 
Q 2250 2553 1709 2553 
Q 1456 2553 1204 2497 
Q 953 2441 691 2322 
L 691 4666 
z
" transform="scale(0.015625)"/>
       </defs>
       <use xlink:href="#DejaVuSans-13"/>
       <use xlink:href="#DejaVuSans-11" transform="translate(63.625 0)"/>
       <use xlink:href="#DejaVuSans-13" transform="translate(95.40625 0)"/>
       <use xlink:href="#DejaVuSans-18" transform="translate(159.03125 0)"/>
      </g>
     </g>
    </g>
    <g id="text_7">
     <!-- drop in AUC when the feature is shuffled -->
     <g transform="translate(236.913281 288.876094) scale(0.1 -0.1)">
      <defs>
       <path id="DejaVuSans-47" d="M 2906 2969 
L 2906 4863 
L 3481 4863 
L 3481 0 
L 2906 0 
L 2906 525 
Q 2725 213 2448 61 
Q 2172 -91 1784 -91 
Q 1150 -91 751 415 
Q 353 922 353 1747 
Q 353 2572 751 3078 
Q 1150 3584 1784 3584 
Q 2172 3584 2448 3432 
Q 2725 3281 2906 2969 
z
M 947 1747 
Q 947 1113 1208 752 
Q 1469 391 1925 391 
Q 2381 391 2643 752 
Q 2906 1113 2906 1747 
Q 2906 2381 2643 2742 
Q 2381 3103 1925 3103 
Q 1469 3103 1208 2742 
Q 947 2381 947 1747 
z
" transform="scale(0.015625)"/>
       <path id="DejaVuSans-55" d="M 2631 2963 
Q 2534 3019 2420 3045 
Q 2306 3072 2169 3072 
Q 1681 3072 1420 2755 
Q 1159 2438 1159 1844 
L 1159 0 
L 581 0 
L 581 3500 
L 1159 3500 
L 1159 2956 
Q 1341 3275 1631 3429 
Q 1922 3584 2338 3584 
Q 2397 3584 2469 3576 
Q 2541 3569 2628 3553 
L 2631 2963 
z
" transform="scale(0.015625)"/>
       <path id="DejaVuSans-52" d="M 1959 3097 
Q 1497 3097 1228 2736 
Q 959 2375 959 1747 
Q 959 1119 1226 758 
Q 1494 397 1959 397 
Q 2419 397 2687 759 
Q 2956 1122 2956 1747 
Q 2956 2369 2687 2733 
Q 2419 3097 1959 3097 
z
M 1959 3584 
Q 2709 3584 3137 3096 
Q 3566 2609 3566 1747 
Q 3566 888 3137 398 
Q 2709 -91 1959 -91 
Q 1206 -91 779 398 
Q 353 888 353 1747 
Q 353 2609 779 3096 
Q 1206 3584 1959 3584 
z
" transform="scale(0.015625)"/>
       <path id="DejaVuSans-53" d="M 1159 525 
L 1159 -1331 
L 581 -1331 
L 581 3500 
L 1159 3500 
L 1159 2969 
Q 1341 3281 1617 3432 
Q 1894 3584 2278 3584 
Q 2916 3584 3314 3078 
Q 3713 2572 3713 1747 
Q 3713 922 3314 415 
Q 2916 -91 2278 -91 
Q 1894 -91 1617 61 
Q 1341 213 1159 525 
z
M 3116 1747 
Q 3116 2381 2855 2742 
Q 2594 3103 2138 3103 
Q 1681 3103 1420 2742 
Q 1159 2381 1159 1747 
Q 1159 1113 1420 752 
Q 1681 391 2138 391 
Q 2594 391 2855 752 
Q 3116 1113 3116 1747 
z
" transform="scale(0.015625)"/>
       <path id="DejaVuSans-3" transform="scale(0.015625)"/>
       <path id="DejaVuSans-4c" d="M 603 3500 
L 1178 3500 
L 1178 0 
L 603 0 
L 603 3500 
z
M 603 4863 
L 1178 4863 
L 1178 4134 
L 603 4134 
L 603 4863 
z
" transform="scale(0.015625)"/>
       <path id="DejaVuSans-51" d="M 3513 2113 
L 3513 0 
L 2938 0 
L 2938 2094 
Q 2938 2591 2744 2837 
Q 2550 3084 2163 3084 
Q 1697 3084 1428 2787 
Q 1159 2491 1159 1978 
L 1159 0 
L 581 0 
L 581 3500 
L 1159 3500 
L 1159 2956 
Q 1366 3272 1645 3428 
Q 1925 3584 2291 3584 
Q 2894 3584 3203 3211 
Q 3513 2838 3513 2113 
z
" transform="scale(0.015625)"/>
       <path id="DejaVuSans-24" d="M 2188 4044 
L 1331 1722 
L 3047 1722 
L 2188 4044 
z
M 1831 4666 
L 2547 4666 
L 4325 0 
L 3669 0 
L 3244 1197 
L 1141 1197 
L 716 0 
L 50 0 
L 1831 4666 
z
" transform="scale(0.015625)"/>
       <path id="DejaVuSans-38" d="M 556 4666 
L 1191 4666 
L 1191 1831 
Q 1191 1081 1462 751 
Q 1734 422 2344 422 
Q 2950 422 3222 751 
Q 3494 1081 3494 1831 
L 3494 4666 
L 4128 4666 
L 4128 1753 
Q 4128 841 3676 375 
Q 3225 -91 2344 -91 
Q 1459 -91 1007 375 
Q 556 841 556 1753 
L 556 4666 
z
" transform="scale(0.015625)"/>
       <path id="DejaVuSans-26" d="M 4122 4306 
L 4122 3641 
Q 3803 3938 3442 4084 
Q 3081 4231 2675 4231 
Q 1875 4231 1450 3742 
Q 1025 3253 1025 2328 
Q 1025 1406 1450 917 
Q 1875 428 2675 428 
Q 3081 428 3442 575 
Q 3803 722 4122 1019 
L 4122 359 
Q 3791 134 3420 21 
Q 3050 -91 2638 -91 
Q 1578 -91 968 557 
Q 359 1206 359 2328 
Q 359 3453 968 4101 
Q 1578 4750 2638 4750 
Q 3056 4750 3426 4639 
Q 3797 4528 4122 4306 
z
" transform="scale(0.015625)"/>
       <path id="DejaVuSans-5a" d="M 269 3500 
L 844 3500 
L 1563 769 
L 2278 3500 
L 2956 3500 
L 3675 769 
L 4391 3500 
L 4966 3500 
L 4050 0 
L 3372 0 
L 2619 2869 
L 1863 0 
L 1184 0 
L 269 3500 
z
" transform="scale(0.015625)"/>
       <path id="DejaVuSans-4b" d="M 3513 2113 
L 3513 0 
L 2938 0 
L 2938 2094 
Q 2938 2591 2744 2837 
Q 2550 3084 2163 3084 
Q 1697 3084 1428 2787 
Q 1159 2491 1159 1978 
L 1159 0 
L 581 0 
L 581 4863 
L 1159 4863 
L 1159 2956 
Q 1366 3272 1645 3428 
Q 1925 3584 2291 3584 
Q 2894 3584 3203 3211 
Q 3513 2838 3513 2113 
z
" transform="scale(0.015625)"/>
       <path id="DejaVuSans-48" d="M 3597 1894 
L 3597 1613 
L 953 1613 
Q 991 1019 1311 708 
Q 1631 397 2203 397 
Q 2534 397 2845 478 
Q 3156 559 3463 722 
L 3463 178 
Q 3153 47 2828 -22 
Q 2503 -91 2169 -91 
Q 1331 -91 842 396 
Q 353 884 353 1716 
Q 353 2575 817 3079 
Q 1281 3584 2069 3584 
Q 2775 3584 3186 3129 
Q 3597 2675 3597 1894 
z
M 3022 2063 
Q 3016 2534 2758 2815 
Q 2500 3097 2075 3097 
Q 1594 3097 1305 2825 
Q 1016 2553 972 2059 
L 3022 2063 
z
" transform="scale(0.015625)"/>
       <path id="DejaVuSans-57" d="M 1172 4494 
L 1172 3500 
L 2356 3500 
L 2356 3053 
L 1172 3053 
L 1172 1153 
Q 1172 725 1289 603 
Q 1406 481 1766 481 
L 2356 481 
L 2356 0 
L 1766 0 
Q 1100 0 847 248 
Q 594 497 594 1153 
L 594 3053 
L 172 3053 
L 172 3500 
L 594 3500 
L 594 4494 
L 1172 4494 
z
" transform="scale(0.015625)"/>
       <path id="DejaVuSans-49" d="M 2375 4863 
L 2375 4384 
L 1825 4384 
Q 1516 4384 1395 4259 
Q 1275 4134 1275 3809 
L 1275 3500 
L 2222 3500 
L 2222 3053 
L 1275 3053 
L 1275 0 
L 697 0 
L 697 3053 
L 147 3053 
L 147 3500 
L 697 3500 
L 697 3744 
Q 697 4328 969 4595 
Q 1241 4863 1831 4863 
L 2375 4863 
z
" transform="scale(0.015625)"/>
       <path id="DejaVuSans-44" d="M 2194 1759 
Q 1497 1759 1228 1600 
Q 959 1441 959 1056 
Q 959 750 1161 570 
Q 1363 391 1709 391 
Q 2188 391 2477 730 
Q 2766 1069 2766 1631 
L 2766 1759 
L 2194 1759 
z
M 3341 1997 
L 3341 0 
L 2766 0 
L 2766 531 
Q 2569 213 2275 61 
Q 1981 -91 1556 -91 
Q 1019 -91 701 211 
Q 384 513 384 1019 
Q 384 1609 779 1909 
Q 1175 2209 1959 2209 
L 2766 2209 
L 2766 2266 
Q 2766 2663 2505 2880 
Q 2244 3097 1772 3097 
Q 1472 3097 1187 3025 
Q 903 2953 641 2809 
L 641 3341 
Q 956 3463 1253 3523 
Q 1550 3584 1831 3584 
Q 2591 3584 2966 3190 
Q 3341 2797 3341 1997 
z
" transform="scale(0.015625)"/>
       <path id="DejaVuSans-58" d="M 544 1381 
L 544 3500 
L 1119 3500 
L 1119 1403 
Q 1119 906 1312 657 
Q 1506 409 1894 409 
Q 2359 409 2629 706 
Q 2900 1003 2900 1516 
L 2900 3500 
L 3475 3500 
L 3475 0 
L 2900 0 
L 2900 538 
Q 2691 219 2414 64 
Q 2138 -91 1772 -91 
Q 1169 -91 856 284 
Q 544 659 544 1381 
z
M 1991 3584 
L 1991 3584 
z
" transform="scale(0.015625)"/>
       <path id="DejaVuSans-56" d="M 2834 3397 
L 2834 2853 
Q 2591 2978 2328 3040 
Q 2066 3103 1784 3103 
Q 1356 3103 1142 2972 
Q 928 2841 928 2578 
Q 928 2378 1081 2264 
Q 1234 2150 1697 2047 
L 1894 2003 
Q 2506 1872 2764 1633 
Q 3022 1394 3022 966 
Q 3022 478 2636 193 
Q 2250 -91 1575 -91 
Q 1294 -91 989 -36 
Q 684 19 347 128 
L 347 722 
Q 666 556 975 473 
Q 1284 391 1588 391 
Q 1994 391 2212 530 
Q 2431 669 2431 922 
Q 2431 1156 2273 1281 
Q 2116 1406 1581 1522 
L 1381 1569 
Q 847 1681 609 1914 
Q 372 2147 372 2553 
Q 372 3047 722 3315 
Q 1072 3584 1716 3584 
Q 2034 3584 2315 3537 
Q 2597 3491 2834 3397 
z
" transform="scale(0.015625)"/>
       <path id="DejaVuSans-13b2" d="M 2375 4863 
L 2375 4384 
L 1825 4384 
Q 1516 4384 1394 4259 
Q 1275 4134 1275 3809 
L 1275 3500 
L 2853 3500 
L 2853 3744 
Q 2853 4328 3125 4595 
Q 3397 4863 3988 4863 
L 5588 4863 
L 5588 0 
L 5009 0 
L 5009 4384 
L 3981 4384 
Q 3672 4384 3551 4259 
Q 3431 4134 3431 3809 
L 3431 3500 
L 4378 3500 
L 4378 3053 
L 3431 3053 
L 3431 0 
L 2853 0 
L 2853 3053 
L 1275 3053 
L 1275 0 
L 697 0 
L 697 3053 
L 147 3053 
L 147 3500 
L 697 3500 
L 697 3744 
Q 697 4328 969 4595 
Q 1241 4863 1831 4863 
L 2375 4863 
z
" transform="scale(0.015625)"/>
      </defs>
      <use xlink:href="#DejaVuSans-47"/>
      <use xlink:href="#DejaVuSans-55" transform="translate(63.484375 0)"/>
      <use xlink:href="#DejaVuSans-52" transform="translate(102.390625 0)"/>
      <use xlink:href="#DejaVuSans-53" transform="translate(163.578125 0)"/>
      <use xlink:href="#DejaVuSans-3" transform="translate(227.0625 0)"/>
      <use xlink:href="#DejaVuSans-4c" transform="translate(258.84375 0)"/>
      <use xlink:href="#DejaVuSans-51" transform="translate(286.625 0)"/>
      <use xlink:href="#DejaVuSans-3" transform="translate(350 0)"/>
      <use xlink:href="#DejaVuSans-24" transform="translate(381.78125 0)"/>
      <use xlink:href="#DejaVuSans-38" transform="translate(450.1875 0)"/>
      <use xlink:href="#DejaVuSans-26" transform="translate(523.375 0)"/>
      <use xlink:href="#DejaVuSans-3" transform="translate(593.203125 0)"/>
      <use xlink:href="#DejaVuSans-5a" transform="translate(624.984375 0)"/>
      <use xlink:href="#DejaVuSans-4b" transform="translate(706.765625 0)"/>
      <use xlink:href="#DejaVuSans-48" transform="translate(770.140625 0)"/>
      <use xlink:href="#DejaVuSans-51" transform="translate(831.671875 0)"/>
      <use xlink:href="#DejaVuSans-3" transform="translate(895.046875 0)"/>
      <use xlink:href="#DejaVuSans-57" transform="translate(926.828125 0)"/>
      <use xlink:href="#DejaVuSans-4b" transform="translate(966.03125 0)"/>
      <use xlink:href="#DejaVuSans-48" transform="translate(1029.40625 0)"/>
      <use xlink:href="#DejaVuSans-3" transform="translate(1090.9375 0)"/>
      <use xlink:href="#DejaVuSans-49" transform="translate(1122.71875 0)"/>
      <use xlink:href="#DejaVuSans-48" transform="translate(1157.921875 0)"/>
      <use xlink:href="#DejaVuSans-44" transform="translate(1219.453125 0)"/>
      <use xlink:href="#DejaVuSans-57" transform="translate(1280.734375 0)"/>
      <use xlink:href="#DejaVuSans-58" transform="translate(1319.9375 0)"/>
      <use xlink:href="#DejaVuSans-55" transform="translate(1383.3125 0)"/>
      <use xlink:href="#DejaVuSans-48" transform="translate(1422.21875 0)"/>
      <use xlink:href="#DejaVuSans-3" transform="translate(1483.75 0)"/>
      <use xlink:href="#DejaVuSans-4c" transform="translate(1515.53125 0)"/>
      <use xlink:href="#DejaVuSans-56" transform="translate(1543.3125 0)"/>
      <use xlink:href="#DejaVuSans-3" transform="translate(1595.40625 0)"/>
      <use xlink:href="#DejaVuSans-56" transform="translate(1627.1875 0)"/>
      <use xlink:href="#DejaVuSans-4b" transform="translate(1679.28125 0)"/>
      <use xlink:href="#DejaVuSans-58" transform="translate(1742.65625 0)"/>
      <use xlink:href="#DejaVuSans-13b2" transform="translate(1806.03125 0)"/>
      <use xlink:href="#DejaVuSans-48" transform="translate(1902.71875 0)"/>
      <use xlink:href="#DejaVuSans-47" transform="translate(1964.25 0)"/>
     </g>
    </g>
   </g>
   <g id="matplotlib.axis_2">
    <g id="ytick_1">
     <g id="line2d_7">
      <defs>
       <path id="mba4b933940" d="M 0 0 
L -3.5 0 
" style="stroke: #000000; stroke-width: 0.8"/>
      </defs>
      <g>
       <use xlink:href="#mba4b933940" x="169" y="241.153044" style="stroke: #000000; stroke-width: 0.8"/>
      </g>
     </g>
     <g id="text_8">
      <!-- demand (log impressions) -->
      <g transform="translate(31.765625 244.952263) scale(0.1 -0.1)">
       <defs>
        <path id="DejaVuSans-50" d="M 3328 2828 
Q 3544 3216 3844 3400 
Q 4144 3584 4550 3584 
Q 5097 3584 5394 3201 
Q 5691 2819 5691 2113 
L 5691 0 
L 5113 0 
L 5113 2094 
Q 5113 2597 4934 2840 
Q 4756 3084 4391 3084 
Q 3944 3084 3684 2787 
Q 3425 2491 3425 1978 
L 3425 0 
L 2847 0 
L 2847 2094 
Q 2847 2600 2669 2842 
Q 2491 3084 2119 3084 
Q 1678 3084 1418 2786 
Q 1159 2488 1159 1978 
L 1159 0 
L 581 0 
L 581 3500 
L 1159 3500 
L 1159 2956 
Q 1356 3278 1631 3431 
Q 1906 3584 2284 3584 
Q 2666 3584 2933 3390 
Q 3200 3197 3328 2828 
z
" transform="scale(0.015625)"/>
        <path id="DejaVuSans-b" d="M 1984 4856 
Q 1566 4138 1362 3434 
Q 1159 2731 1159 2009 
Q 1159 1288 1364 580 
Q 1569 -128 1984 -844 
L 1484 -844 
Q 1016 -109 783 600 
Q 550 1309 550 2009 
Q 550 2706 781 3412 
Q 1013 4119 1484 4856 
L 1984 4856 
z
" transform="scale(0.015625)"/>
        <path id="DejaVuSans-4f" d="M 603 4863 
L 1178 4863 
L 1178 0 
L 603 0 
L 603 4863 
z
" transform="scale(0.015625)"/>
        <path id="DejaVuSans-4a" d="M 2906 1791 
Q 2906 2416 2648 2759 
Q 2391 3103 1925 3103 
Q 1463 3103 1205 2759 
Q 947 2416 947 1791 
Q 947 1169 1205 825 
Q 1463 481 1925 481 
Q 2391 481 2648 825 
Q 2906 1169 2906 1791 
z
M 3481 434 
Q 3481 -459 3084 -895 
Q 2688 -1331 1869 -1331 
Q 1566 -1331 1297 -1286 
Q 1028 -1241 775 -1147 
L 775 -588 
Q 1028 -725 1275 -790 
Q 1522 -856 1778 -856 
Q 2344 -856 2625 -561 
Q 2906 -266 2906 331 
L 2906 616 
Q 2728 306 2450 153 
Q 2172 0 1784 0 
Q 1141 0 747 490 
Q 353 981 353 1791 
Q 353 2603 747 3093 
Q 1141 3584 1784 3584 
Q 2172 3584 2450 3431 
Q 2728 3278 2906 2969 
L 2906 3500 
L 3481 3500 
L 3481 434 
z
" transform="scale(0.015625)"/>
        <path id="DejaVuSans-c" d="M 513 4856 
L 1013 4856 
Q 1481 4119 1714 3412 
Q 1947 2706 1947 2009 
Q 1947 1309 1714 600 
Q 1481 -109 1013 -844 
L 513 -844 
Q 928 -128 1133 580 
Q 1338 1288 1338 2009 
Q 1338 2731 1133 3434 
Q 928 4138 513 4856 
z
" transform="scale(0.015625)"/>
       </defs>
       <use xlink:href="#DejaVuSans-47"/>
       <use xlink:href="#DejaVuSans-48" transform="translate(63.484375 0)"/>
       <use xlink:href="#DejaVuSans-50" transform="translate(125.015625 0)"/>
       <use xlink:href="#DejaVuSans-44" transform="translate(222.421875 0)"/>
       <use xlink:href="#DejaVuSans-51" transform="translate(283.703125 0)"/>
       <use xlink:href="#DejaVuSans-47" transform="translate(347.078125 0)"/>
       <use xlink:href="#DejaVuSans-3" transform="translate(410.5625 0)"/>
       <use xlink:href="#DejaVuSans-b" transform="translate(442.34375 0)"/>
       <use xlink:href="#DejaVuSans-4f" transform="translate(481.359375 0)"/>
       <use xlink:href="#DejaVuSans-52" transform="translate(509.140625 0)"/>
       <use xlink:href="#DejaVuSans-4a" transform="translate(570.328125 0)"/>
       <use xlink:href="#DejaVuSans-3" transform="translate(633.8125 0)"/>
       <use xlink:href="#DejaVuSans-4c" transform="translate(665.59375 0)"/>
       <use xlink:href="#DejaVuSans-50" transform="translate(693.375 0)"/>
       <use xlink:href="#DejaVuSans-53" transform="translate(790.78125 0)"/>
       <use xlink:href="#DejaVuSans-55" transform="translate(854.265625 0)"/>
       <use xlink:href="#DejaVuSans-48" transform="translate(893.171875 0)"/>
       <use xlink:href="#DejaVuSans-56" transform="translate(954.703125 0)"/>
       <use xlink:href="#DejaVuSans-56" transform="translate(1006.796875 0)"/>
       <use xlink:href="#DejaVuSans-4c" transform="translate(1058.890625 0)"/>
       <use xlink:href="#DejaVuSans-52" transform="translate(1086.671875 0)"/>
       <use xlink:href="#DejaVuSans-51" transform="translate(1147.859375 0)"/>
       <use xlink:href="#DejaVuSans-56" transform="translate(1211.234375 0)"/>
       <use xlink:href="#DejaVuSans-c" transform="translate(1263.328125 0)"/>
      </g>
     </g>
    </g>
    <g id="ytick_2">
     <g id="line2d_8">
      <g>
       <use xlink:href="#mba4b933940" x="169" y="213.028614" style="stroke: #000000; stroke-width: 0.8"/>
      </g>
     </g>
     <g id="text_9">
      <!-- CTR deficit vs peers -->
      <g transform="translate(62.326562 216.827833) scale(0.1 -0.1)">
       <defs>
        <path id="DejaVuSans-37" d="M -19 4666 
L 3928 4666 
L 3928 4134 
L 2272 4134 
L 2272 0 
L 1638 0 
L 1638 4134 
L -19 4134 
L -19 4666 
z
" transform="scale(0.015625)"/>
        <path id="DejaVuSans-35" d="M 2841 2188 
Q 3044 2119 3236 1894 
Q 3428 1669 3622 1275 
L 4263 0 
L 3584 0 
L 2988 1197 
Q 2756 1666 2539 1819 
Q 2322 1972 1947 1972 
L 1259 1972 
L 1259 0 
L 628 0 
L 628 4666 
L 2053 4666 
Q 2853 4666 3247 4331 
Q 3641 3997 3641 3322 
Q 3641 2881 3436 2590 
Q 3231 2300 2841 2188 
z
M 1259 4147 
L 1259 2491 
L 2053 2491 
Q 2509 2491 2742 2702 
Q 2975 2913 2975 3322 
Q 2975 3731 2742 3939 
Q 2509 4147 2053 4147 
L 1259 4147 
z
" transform="scale(0.015625)"/>
        <path id="DejaVuSans-13af" d="M 3431 3500 
L 3431 0 
L 2853 0 
L 2853 3053 
L 1275 3053 
L 1275 0 
L 697 0 
L 697 3053 
L 147 3053 
L 147 3500 
L 697 3500 
L 697 3744 
Q 697 4316 967 4589 
Q 1238 4863 1797 4863 
L 2375 4863 
L 2375 4384 
L 1825 4384 
Q 1516 4384 1395 4259 
Q 1275 4134 1275 3809 
L 1275 3500 
L 3431 3500 
z
M 2853 4856 
L 3431 4856 
L 3431 4128 
L 2853 4128 
L 2853 4856 
z
" transform="scale(0.015625)"/>
        <path id="DejaVuSans-46" d="M 3122 3366 
L 3122 2828 
Q 2878 2963 2633 3030 
Q 2388 3097 2138 3097 
Q 1578 3097 1268 2742 
Q 959 2388 959 1747 
Q 959 1106 1268 751 
Q 1578 397 2138 397 
Q 2388 397 2633 464 
Q 2878 531 3122 666 
L 3122 134 
Q 2881 22 2623 -34 
Q 2366 -91 2075 -91 
Q 1284 -91 818 406 
Q 353 903 353 1747 
Q 353 2603 823 3093 
Q 1294 3584 2113 3584 
Q 2378 3584 2631 3529 
Q 2884 3475 3122 3366 
z
" transform="scale(0.015625)"/>
        <path id="DejaVuSans-59" d="M 191 3500 
L 800 3500 
L 1894 563 
L 2988 3500 
L 3597 3500 
L 2284 0 
L 1503 0 
L 191 3500 
z
" transform="scale(0.015625)"/>
       </defs>
       <use xlink:href="#DejaVuSans-26"/>
       <use xlink:href="#DejaVuSans-37" transform="translate(69.828125 0)"/>
       <use xlink:href="#DejaVuSans-35" transform="translate(130.90625 0)"/>
       <use xlink:href="#DejaVuSans-3" transform="translate(200.390625 0)"/>
       <use xlink:href="#DejaVuSans-47" transform="translate(232.171875 0)"/>
       <use xlink:href="#DejaVuSans-48" transform="translate(295.65625 0)"/>
       <use xlink:href="#DejaVuSans-13af" transform="translate(357.1875 0)"/>
       <use xlink:href="#DejaVuSans-46" transform="translate(420.171875 0)"/>
       <use xlink:href="#DejaVuSans-4c" transform="translate(475.15625 0)"/>
       <use xlink:href="#DejaVuSans-57" transform="translate(502.9375 0)"/>
       <use xlink:href="#DejaVuSans-3" transform="translate(542.140625 0)"/>
       <use xlink:href="#DejaVuSans-59" transform="translate(573.921875 0)"/>
       <use xlink:href="#DejaVuSans-56" transform="translate(633.109375 0)"/>
       <use xlink:href="#DejaVuSans-3" transform="translate(685.203125 0)"/>
       <use xlink:href="#DejaVuSans-53" transform="translate(716.984375 0)"/>
       <use xlink:href="#DejaVuSans-48" transform="translate(780.46875 0)"/>
       <use xlink:href="#DejaVuSans-48" transform="translate(842 0)"/>
       <use xlink:href="#DejaVuSans-55" transform="translate(903.53125 0)"/>
       <use xlink:href="#DejaVuSans-56" transform="translate(944.640625 0)"/>
      </g>
     </g>
    </g>
    <g id="ytick_3">
     <g id="line2d_9">
      <g>
       <use xlink:href="#mba4b933940" x="169" y="184.904184" style="stroke: #000000; stroke-width: 0.8"/>
      </g>
     </g>
     <g id="text_10">
      <!-- position coverage -->
      <g transform="translate(72.782812 188.703403) scale(0.1 -0.1)">
       <use xlink:href="#DejaVuSans-53"/>
       <use xlink:href="#DejaVuSans-52" transform="translate(63.484375 0)"/>
       <use xlink:href="#DejaVuSans-56" transform="translate(124.671875 0)"/>
       <use xlink:href="#DejaVuSans-4c" transform="translate(176.765625 0)"/>
       <use xlink:href="#DejaVuSans-57" transform="translate(204.546875 0)"/>
       <use xlink:href="#DejaVuSans-4c" transform="translate(243.75 0)"/>
       <use xlink:href="#DejaVuSans-52" transform="translate(271.53125 0)"/>
       <use xlink:href="#DejaVuSans-51" transform="translate(332.71875 0)"/>
       <use xlink:href="#DejaVuSans-3" transform="translate(396.09375 0)"/>
       <use xlink:href="#DejaVuSans-46" transform="translate(427.875 0)"/>
       <use xlink:href="#DejaVuSans-52" transform="translate(482.859375 0)"/>
       <use xlink:href="#DejaVuSans-59" transform="translate(544.046875 0)"/>
       <use xlink:href="#DejaVuSans-48" transform="translate(603.234375 0)"/>
       <use xlink:href="#DejaVuSans-55" transform="translate(664.765625 0)"/>
       <use xlink:href="#DejaVuSans-44" transform="translate(705.875 0)"/>
       <use xlink:href="#DejaVuSans-4a" transform="translate(767.15625 0)"/>
       <use xlink:href="#DejaVuSans-48" transform="translate(830.640625 0)"/>
      </g>
     </g>
    </g>
    <g id="ytick_4">
     <g id="line2d_10">
      <g>
       <use xlink:href="#mba4b933940" x="169" y="156.779754" style="stroke: #000000; stroke-width: 0.8"/>
      </g>
     </g>
     <g id="text_11">
      <!-- clicks -->
      <g transform="translate(134.446875 160.578973) scale(0.1 -0.1)">
       <defs>
        <path id="DejaVuSans-4e" d="M 581 4863 
L 1159 4863 
L 1159 1991 
L 2875 3500 
L 3609 3500 
L 1753 1863 
L 3688 0 
L 2938 0 
L 1159 1709 
L 1159 0 
L 581 0 
L 581 4863 
z
" transform="scale(0.015625)"/>
       </defs>
       <use xlink:href="#DejaVuSans-46"/>
       <use xlink:href="#DejaVuSans-4f" transform="translate(54.984375 0)"/>
       <use xlink:href="#DejaVuSans-4c" transform="translate(82.765625 0)"/>
       <use xlink:href="#DejaVuSans-46" transform="translate(110.546875 0)"/>
       <use xlink:href="#DejaVuSans-4e" transform="translate(165.53125 0)"/>
       <use xlink:href="#DejaVuSans-56" transform="translate(223.4375 0)"/>
      </g>
     </g>
    </g>
    <g id="ytick_5">
     <g id="line2d_11">
      <g>
       <use xlink:href="#mba4b933940" x="169" y="128.655324" style="stroke: #000000; stroke-width: 0.8"/>
      </g>
     </g>
     <g id="text_12">
      <!-- position movement -->
      <g transform="translate(65.129687 132.454543) scale(0.1 -0.1)">
       <use xlink:href="#DejaVuSans-53"/>
       <use xlink:href="#DejaVuSans-52" transform="translate(63.484375 0)"/>
       <use xlink:href="#DejaVuSans-56" transform="translate(124.671875 0)"/>
       <use xlink:href="#DejaVuSans-4c" transform="translate(176.765625 0)"/>
       <use xlink:href="#DejaVuSans-57" transform="translate(204.546875 0)"/>
       <use xlink:href="#DejaVuSans-4c" transform="translate(243.75 0)"/>
       <use xlink:href="#DejaVuSans-52" transform="translate(271.53125 0)"/>
       <use xlink:href="#DejaVuSans-51" transform="translate(332.71875 0)"/>
       <use xlink:href="#DejaVuSans-3" transform="translate(396.09375 0)"/>
       <use xlink:href="#DejaVuSans-50" transform="translate(427.875 0)"/>
       <use xlink:href="#DejaVuSans-52" transform="translate(525.28125 0)"/>
       <use xlink:href="#DejaVuSans-59" transform="translate(586.46875 0)"/>
       <use xlink:href="#DejaVuSans-48" transform="translate(645.65625 0)"/>
       <use xlink:href="#DejaVuSans-50" transform="translate(707.1875 0)"/>
       <use xlink:href="#DejaVuSans-48" transform="translate(804.59375 0)"/>
       <use xlink:href="#DejaVuSans-51" transform="translate(866.125 0)"/>
       <use xlink:href="#DejaVuSans-57" transform="translate(929.5 0)"/>
      </g>
     </g>
    </g>
    <g id="ytick_6">
     <g id="line2d_12">
      <g>
       <use xlink:href="#mba4b933940" x="169" y="100.530894" style="stroke: #000000; stroke-width: 0.8"/>
      </g>
     </g>
     <g id="text_13">
      <!-- momentum (this month / last) -->
      <g transform="translate(11.290625 104.330113) scale(0.1 -0.1)">
       <defs>
        <path id="DejaVuSans-12" d="M 1625 4666 
L 2156 4666 
L 531 -594 
L 0 -594 
L 1625 4666 
z
" transform="scale(0.015625)"/>
       </defs>
       <use xlink:href="#DejaVuSans-50"/>
       <use xlink:href="#DejaVuSans-52" transform="translate(97.40625 0)"/>
       <use xlink:href="#DejaVuSans-50" transform="translate(158.59375 0)"/>
       <use xlink:href="#DejaVuSans-48" transform="translate(256 0)"/>
       <use xlink:href="#DejaVuSans-51" transform="translate(317.53125 0)"/>
       <use xlink:href="#DejaVuSans-57" transform="translate(380.90625 0)"/>
       <use xlink:href="#DejaVuSans-58" transform="translate(420.109375 0)"/>
       <use xlink:href="#DejaVuSans-50" transform="translate(483.484375 0)"/>
       <use xlink:href="#DejaVuSans-3" transform="translate(580.890625 0)"/>
       <use xlink:href="#DejaVuSans-b" transform="translate(612.671875 0)"/>
       <use xlink:href="#DejaVuSans-57" transform="translate(651.6875 0)"/>
       <use xlink:href="#DejaVuSans-4b" transform="translate(690.890625 0)"/>
       <use xlink:href="#DejaVuSans-4c" transform="translate(754.265625 0)"/>
       <use xlink:href="#DejaVuSans-56" transform="translate(782.046875 0)"/>
       <use xlink:href="#DejaVuSans-3" transform="translate(834.140625 0)"/>
       <use xlink:href="#DejaVuSans-50" transform="translate(865.921875 0)"/>
       <use xlink:href="#DejaVuSans-52" transform="translate(963.328125 0)"/>
       <use xlink:href="#DejaVuSans-51" transform="translate(1024.515625 0)"/>
       <use xlink:href="#DejaVuSans-57" transform="translate(1087.890625 0)"/>
       <use xlink:href="#DejaVuSans-4b" transform="translate(1127.09375 0)"/>
       <use xlink:href="#DejaVuSans-3" transform="translate(1190.46875 0)"/>
       <use xlink:href="#DejaVuSans-12" transform="translate(1222.25 0)"/>
       <use xlink:href="#DejaVuSans-3" transform="translate(1255.9375 0)"/>
       <use xlink:href="#DejaVuSans-4f" transform="translate(1287.71875 0)"/>
       <use xlink:href="#DejaVuSans-44" transform="translate(1315.5 0)"/>
       <use xlink:href="#DejaVuSans-56" transform="translate(1376.78125 0)"/>
       <use xlink:href="#DejaVuSans-57" transform="translate(1428.875 0)"/>
       <use xlink:href="#DejaVuSans-c" transform="translate(1468.078125 0)"/>
      </g>
     </g>
    </g>
    <g id="ytick_7">
     <g id="line2d_13">
      <g>
       <use xlink:href="#mba4b933940" x="169" y="72.406464" style="stroke: #000000; stroke-width: 0.8"/>
      </g>
     </g>
     <g id="text_14">
      <!-- click-through rate -->
      <g transform="translate(73.267187 76.205683) scale(0.1 -0.1)">
       <defs>
        <path id="DejaVuSans-10" d="M 313 2009 
L 1997 2009 
L 1997 1497 
L 313 1497 
L 313 2009 
z
" transform="scale(0.015625)"/>
       </defs>
       <use xlink:href="#DejaVuSans-46"/>
       <use xlink:href="#DejaVuSans-4f" transform="translate(54.984375 0)"/>
       <use xlink:href="#DejaVuSans-4c" transform="translate(82.765625 0)"/>
       <use xlink:href="#DejaVuSans-46" transform="translate(110.546875 0)"/>
       <use xlink:href="#DejaVuSans-4e" transform="translate(165.53125 0)"/>
       <use xlink:href="#DejaVuSans-10" transform="translate(223.4375 0)"/>
       <use xlink:href="#DejaVuSans-57" transform="translate(259.515625 0)"/>
       <use xlink:href="#DejaVuSans-4b" transform="translate(298.71875 0)"/>
       <use xlink:href="#DejaVuSans-55" transform="translate(362.09375 0)"/>
       <use xlink:href="#DejaVuSans-52" transform="translate(401 0)"/>
       <use xlink:href="#DejaVuSans-58" transform="translate(462.1875 0)"/>
       <use xlink:href="#DejaVuSans-4a" transform="translate(525.5625 0)"/>
       <use xlink:href="#DejaVuSans-4b" transform="translate(589.046875 0)"/>
       <use xlink:href="#DejaVuSans-3" transform="translate(652.421875 0)"/>
       <use xlink:href="#DejaVuSans-55" transform="translate(684.203125 0)"/>
       <use xlink:href="#DejaVuSans-44" transform="translate(725.3125 0)"/>
       <use xlink:href="#DejaVuSans-57" transform="translate(786.59375 0)"/>
       <use xlink:href="#DejaVuSans-48" transform="translate(825.796875 0)"/>
      </g>
     </g>
    </g>
    <g id="ytick_8">
     <g id="line2d_14">
      <g>
       <use xlink:href="#mba4b933940" x="169" y="44.282034" style="stroke: #000000; stroke-width: 0.8"/>
      </g>
     </g>
     <g id="text_15">
      <!-- active-day ratio -->
      <g transform="translate(83.365625 48.081253) scale(0.1 -0.1)">
       <defs>
        <path id="DejaVuSans-5c" d="M 2059 -325 
Q 1816 -950 1584 -1140 
Q 1353 -1331 966 -1331 
L 506 -1331 
L 506 -850 
L 844 -850 
Q 1081 -850 1212 -737 
Q 1344 -625 1503 -206 
L 1606 56 
L 191 3500 
L 800 3500 
L 1894 763 
L 2988 3500 
L 3597 3500 
L 2059 -325 
z
" transform="scale(0.015625)"/>
       </defs>
       <use xlink:href="#DejaVuSans-44"/>
       <use xlink:href="#DejaVuSans-46" transform="translate(61.28125 0)"/>
       <use xlink:href="#DejaVuSans-57" transform="translate(116.265625 0)"/>
       <use xlink:href="#DejaVuSans-4c" transform="translate(155.46875 0)"/>
       <use xlink:href="#DejaVuSans-59" transform="translate(183.25 0)"/>
       <use xlink:href="#DejaVuSans-48" transform="translate(242.4375 0)"/>
       <use xlink:href="#DejaVuSans-10" transform="translate(303.96875 0)"/>
       <use xlink:href="#DejaVuSans-47" transform="translate(340.046875 0)"/>
       <use xlink:href="#DejaVuSans-44" transform="translate(403.53125 0)"/>
       <use xlink:href="#DejaVuSans-5c" transform="translate(464.8125 0)"/>
       <use xlink:href="#DejaVuSans-3" transform="translate(524 0)"/>
       <use xlink:href="#DejaVuSans-55" transform="translate(555.78125 0)"/>
       <use xlink:href="#DejaVuSans-44" transform="translate(596.890625 0)"/>
       <use xlink:href="#DejaVuSans-57" transform="translate(658.171875 0)"/>
       <use xlink:href="#DejaVuSans-4c" transform="translate(697.375 0)"/>
       <use xlink:href="#DejaVuSans-52" transform="translate(725.15625 0)"/>
      </g>
     </g>
    </g>
   </g>
   <g id="LineCollection_1">
    <path d="M 191.896868 241.153044 
L 193.229279 241.153044 
" clip-path="url(#p36e0de58a2)" style="fill: none; stroke: #94a3b8"/>
    <path d="M 192.693419 213.028614 
L 201.235468 213.028614 
" clip-path="url(#p36e0de58a2)" style="fill: none; stroke: #94a3b8"/>
    <path d="M 202.841698 184.904184 
L 208.02927 184.904184 
" clip-path="url(#p36e0de58a2)" style="fill: none; stroke: #94a3b8"/>
    <path d="M 212.282905 156.779754 
L 218.987919 156.779754 
" clip-path="url(#p36e0de58a2)" style="fill: none; stroke: #94a3b8"/>
    <path d="M 210.294843 128.655324 
L 233.975812 128.655324 
" clip-path="url(#p36e0de58a2)" style="fill: none; stroke: #94a3b8"/>
    <path d="M 319.88456 100.530894 
L 350.872484 100.530894 
" clip-path="url(#p36e0de58a2)" style="fill: none; stroke: #94a3b8"/>
    <path d="M 348.981979 72.406464 
L 372.259515 72.406464 
" clip-path="url(#p36e0de58a2)" style="fill: none; stroke: #94a3b8"/>
    <path d="M 439.232777 44.282034 
L 491.47619 44.282034 
" clip-path="url(#p36e0de58a2)" style="fill: none; stroke: #94a3b8"/>
   </g>
   <g id="patch_11">
    <path d="M 169 260.277656 
L 169 25.157422 
" style="fill: none; stroke: #000000; stroke-width: 0.8; stroke-linejoin: miter; stroke-linecap: square"/>
   </g>
   <g id="patch_12">
    <path d="M 169 260.277656 
L 507.6 260.277656 
" style="fill: none; stroke: #000000; stroke-width: 0.8; stroke-linejoin: miter; stroke-linecap: square"/>
   </g>
   <g id="text_16">
    <!-- What the model leans on -->
    <g transform="translate(169 19.157422) scale(0.11 -0.11)">
     <defs>
      <path id="DejaVuSans-3a" d="M 213 4666 
L 850 4666 
L 1831 722 
L 2809 4666 
L 3519 4666 
L 4500 722 
L 5478 4666 
L 6119 4666 
L 4947 0 
L 4153 0 
L 3169 4050 
L 2175 0 
L 1381 0 
L 213 4666 
z
" transform="scale(0.015625)"/>
     </defs>
     <use xlink:href="#DejaVuSans-3a"/>
     <use xlink:href="#DejaVuSans-4b" transform="translate(98.875 0)"/>
     <use xlink:href="#DejaVuSans-44" transform="translate(162.25 0)"/>
     <use xlink:href="#DejaVuSans-57" transform="translate(223.53125 0)"/>
     <use xlink:href="#DejaVuSans-3" transform="translate(262.734375 0)"/>
     <use xlink:href="#DejaVuSans-57" transform="translate(294.515625 0)"/>
     <use xlink:href="#DejaVuSans-4b" transform="translate(333.71875 0)"/>
     <use xlink:href="#DejaVuSans-48" transform="translate(397.09375 0)"/>
     <use xlink:href="#DejaVuSans-3" transform="translate(458.625 0)"/>
     <use xlink:href="#DejaVuSans-50" transform="translate(490.40625 0)"/>
     <use xlink:href="#DejaVuSans-52" transform="translate(587.8125 0)"/>
     <use xlink:href="#DejaVuSans-47" transform="translate(649 0)"/>
     <use xlink:href="#DejaVuSans-48" transform="translate(712.484375 0)"/>
     <use xlink:href="#DejaVuSans-4f" transform="translate(774.015625 0)"/>
     <use xlink:href="#DejaVuSans-3" transform="translate(801.796875 0)"/>
     <use xlink:href="#DejaVuSans-4f" transform="translate(833.578125 0)"/>
     <use xlink:href="#DejaVuSans-48" transform="translate(861.359375 0)"/>
     <use xlink:href="#DejaVuSans-44" transform="translate(922.890625 0)"/>
     <use xlink:href="#DejaVuSans-51" transform="translate(984.171875 0)"/>
     <use xlink:href="#DejaVuSans-56" transform="translate(1047.546875 0)"/>
     <use xlink:href="#DejaVuSans-3" transform="translate(1099.640625 0)"/>
     <use xlink:href="#DejaVuSans-52" transform="translate(1131.421875 0)"/>
     <use xlink:href="#DejaVuSans-51" transform="translate(1192.609375 0)"/>
    </g>
   </g>
  </g>
 </g>
 <defs>
  <clipPath id="p36e0de58a2">
   <rect x="169" y="25.157422" width="338.6" height="235.120234"/>
  </clipPath>
 </defs>
</svg>
